<svg width="88" height="88" viewBox="0 0 88 88" fill="none" xmlns="http://www.w3.org/2000/svg">
<path d="M38.6468 53.277L30.8368 45.467L26.9502 49.3536L38.6102 61.0136L60.6102 39.0136L56.7235 35.127L38.6468 53.277ZM44.0002 73.3336C37.1929 73.3336 30.6645 70.6295 25.8511 65.8161C21.0377 61.0026 18.3335 54.4742 18.3335 47.667C18.3335 40.8598 21.0377 34.3313 25.8511 29.5179C30.6645 24.7045 37.1929 22.0003 44.0002 22.0003C50.8074 22.0003 57.3358 24.7045 62.1492 29.5179C66.9627 34.3313 69.6668 40.8598 69.6668 47.667C69.6668 54.4742 66.9627 61.0026 62.1492 65.8161C57.3358 70.6295 50.8074 73.3336 44.0002 73.3336ZM44.0002 14.667C35.248 14.667 26.8543 18.1438 20.6656 24.3325C14.4769 30.5212 11.0002 38.9148 11.0002 47.667C11.0002 56.4191 14.4769 64.8128 20.6656 71.0015C26.8543 77.1902 35.248 80.667 44.0002 80.667C52.7523 80.667 61.146 77.1902 67.3347 71.0015C73.5234 64.8128 77.0002 56.4191 77.0002 47.667C77.0002 38.9148 73.5234 30.5212 67.3347 24.3325C61.146 18.1438 52.7523 14.667 44.0002 14.667ZM28.8935 12.4303L24.2002 6.82031L7.3335 20.937L12.0635 26.547L28.8935 12.4303ZM80.6668 20.9736L63.8002 6.82031L59.0702 12.4303L75.9368 26.5836L80.6668 20.9736Z" fill="#2D0C57"/>
</svg>
